<svg xmlns="http://www.w3.org/2000/svg" xmlns:xlink="http://www.w3.org/1999/xlink" width="500" zoomAndPan="magnify" viewBox="0 0 375 374.999991" height="500" preserveAspectRatio="xMidYMid meet" version="1.0"><path fill="#000000" d="M 186.640625 25.605469 C 183.808594 28.640625 180.722656 41.535156 181.796875 45.820312 C 182.410156 48.269531 183.109375 46.746094 183.984375 41.054688 C 184.871094 35.28125 185.480469 33.691406 188.238281 29.929688 C 190.753906 26.503906 191.140625 24.203125 189.199219 24.203125 C 188.507812 24.203125 187.355469 24.835938 186.640625 25.605469 M 159.769531 43.898438 C 158.417969 48.441406 157.941406 52.191406 159.0625 49.492188 C 160.1875 46.777344 161.832031 40.183594 161.472656 39.824219 C 161.265625 39.617188 160.5 41.449219 159.769531 43.898438 M 215.347656 42.757812 C 210.492188 45.347656 205.820312 51.335938 201.65625 60.3125 C 197.398438 69.484375 193.621094 82.980469 194.597656 85.527344 C 195.34375 87.476562 196.613281 84.878906 197.433594 79.71875 C 198.964844 70.09375 204.375 57.296875 209.074219 52.171875 C 210.628906 50.476562 213.773438 48.011719 216.0625 46.695312 C 218.9375 45.039062 220.222656 43.917969 220.222656 43.054688 C 220.222656 41.355469 218.203125 41.230469 215.347656 42.757812 M 189.835938 48.328125 C 187.925781 50.757812 188.367188 52.050781 191.101562 52.050781 C 192.496094 52.050781 193.3125 51.75 193.269531 51.253906 C 193.234375 50.8125 193.164062 49.585938 193.109375 48.53125 C 192.988281 46.113281 191.644531 46.027344 189.835938 48.328125 M 109.308594 48.28125 C 108.414062 48.679688 108.222656 50.839844 109.035156 51.34375 C 109.328125 51.519531 111.335938 51.953125 113.5 52.300781 C 118.824219 53.160156 121.417969 54.503906 125.222656 58.378906 C 129.226562 62.460938 131.945312 67.128906 132.929688 71.632812 C 134.019531 76.582031 135 77.226562 134.566406 72.699219 C 133.863281 65.433594 126.867188 55.3125 119.417969 50.785156 C 115.875 48.636719 111.148438 47.464844 109.308594 48.28125 M 190.453125 50.132812 C 190.453125 50.660156 190.742188 51.09375 191.09375 51.09375 C 191.445312 51.09375 191.734375 50.660156 191.734375 50.132812 C 191.734375 49.605469 191.445312 49.171875 191.09375 49.171875 C 190.742188 49.171875 190.453125 49.605469 190.453125 50.132812 M 147.5625 50.308594 C 147.5625 50.628906 148.136719 52.566406 148.84375 54.613281 C 149.546875 56.660156 150.121094 58.414062 150.121094 58.507812 C 150.121094 58.605469 148.800781 57.945312 147.1875 57.042969 C 144.679688 55.644531 143.714844 55.453125 140.527344 55.742188 C 134.386719 56.300781 133.90625 57.128906 139.007812 58.371094 C 144.023438 59.59375 148.203125 61.273438 148.203125 62.074219 C 148.203125 62.371094 146.464844 62.617188 144.339844 62.617188 C 140.402344 62.617188 137.367188 63.550781 135.078125 65.472656 C 133.84375 66.511719 133.875 66.535156 136.039062 66.140625 C 142.394531 64.988281 144.429688 64.769531 146.230469 65.03125 C 148.699219 65.394531 148.734375 65.976562 146.34375 66.878906 C 144.070312 67.734375 140.753906 72.164062 139.839844 75.566406 C 138.675781 79.882812 139.457031 80.304688 141.472656 76.453125 C 142.523438 74.441406 143.96875 72.246094 144.691406 71.570312 C 146.113281 70.234375 151.390625 68.152344 151.945312 68.707031 C 152.132812 68.894531 151.957031 69.976562 151.558594 71.113281 C 149.804688 76.066406 149.238281 81.71875 150.003906 86.648438 C 151.121094 93.832031 153.375 97.371094 159.503906 101.566406 C 163.078125 104.011719 163.203125 103.042969 159.785156 99.429688 C 152.527344 91.757812 150.71875 81.222656 154.925781 71.15625 C 155.851562 68.9375 155.953125 68.878906 157.09375 69.914062 C 157.753906 70.511719 160.515625 75.472656 163.234375 80.9375 C 165.949219 86.402344 168.277344 90.769531 168.40625 90.636719 C 169.109375 89.933594 165.890625 81.003906 161.875 72.519531 C 160.949219 70.570312 160.347656 68.820312 160.539062 68.632812 C 160.726562 68.441406 162.058594 68.886719 163.496094 69.621094 C 166.75 71.28125 170.492188 75.949219 173.585938 82.210938 C 174.890625 84.847656 176.191406 87.152344 176.484375 87.332031 C 178.804688 88.765625 172.910156 76.632812 168.6875 71.28125 C 167.457031 69.71875 165.222656 67.777344 163.726562 66.96875 C 162.230469 66.160156 161.003906 65.25 161.003906 64.941406 C 161.003906 63.648438 170.777344 65.769531 178.609375 68.765625 C 179.769531 69.210938 179.804688 69.148438 178.972656 68.125 C 177.847656 66.746094 173.164062 64.324219 169.492188 63.226562 C 167.332031 62.582031 166.921875 62.238281 167.492188 61.554688 C 168.867188 59.894531 177.542969 60.945312 182.292969 63.347656 C 185 64.71875 184.902344 64.535156 184.074219 66.714844 C 183.59375 67.980469 183.679688 68.464844 184.464844 68.902344 C 185.332031 69.386719 185.246094 69.6875 183.84375 71.089844 C 182.949219 71.984375 182.070312 73.683594 181.890625 74.867188 C 181.710938 76.050781 181.246094 79.324219 180.855469 82.140625 C 180.464844 84.957031 179.28125 91.832031 178.226562 97.421875 C 177.171875 103.007812 176.425781 107.695312 176.566406 107.839844 C 177.386719 108.65625 179.148438 104.214844 184.355469 88.222656 C 187.777344 77.722656 188.746094 71.226562 186.992188 70.550781 C 186.027344 70.179688 186.050781 70.042969 187.222656 69.222656 C 187.945312 68.71875 188.535156 67.746094 188.535156 67.058594 C 188.535156 66.375 188.839844 65.816406 189.214844 65.816406 C 189.59375 65.816406 189.730469 65.277344 189.515625 64.605469 C 189.304688 63.9375 189.703125 61.332031 190.402344 58.8125 C 191.484375 54.90625 191.535156 54.183594 190.742188 53.941406 C 190.230469 53.78125 189.410156 53.527344 188.914062 53.375 C 188.269531 53.175781 187.691406 54.316406 186.882812 57.375 C 186.261719 59.730469 185.691406 61.746094 185.609375 61.855469 C 185.53125 61.964844 182.628906 61.183594 179.15625 60.121094 C 172.523438 58.089844 166.171875 57.480469 161.003906 58.382812 C 158.382812 58.835938 158.238281 58.796875 159.40625 57.949219 C 160.109375 57.433594 162.269531 56.503906 164.207031 55.878906 C 170.46875 53.863281 170.554688 53.648438 165.054688 53.816406 C 160.324219 53.960938 159.542969 54.175781 156.894531 56.042969 L 153.964844 58.109375 L 153.964844 56 C 153.964844 54.527344 153.433594 53.394531 152.203125 52.242188 C 150.332031 50.492188 147.5625 49.335938 147.5625 50.308594 M 188.902344 56.28125 C 186.523438 63.355469 185.375 68.671875 186.507812 67.386719 C 187.261719 66.527344 189.96875 56.15625 189.550781 55.734375 C 189.359375 55.546875 189.070312 55.792969 188.902344 56.28125 M 218.667969 60.609375 C 218.316406 61.269531 218.210938 61.988281 218.433594 62.210938 C 219.023438 62.800781 221.359375 62.6875 222.421875 62.015625 C 223.183594 61.53125 223.199219 61.261719 222.503906 60.421875 C 221.371094 59.054688 219.449219 59.152344 218.667969 60.609375 M 155.257812 62.28125 C 154.8125 62.816406 154.03125 63.253906 153.523438 63.253906 C 152.859375 63.253906 152.722656 63.664062 153.039062 64.695312 C 153.636719 66.640625 153.671875 66.660156 155.144531 65.871094 C 155.851562 65.492188 156.847656 65.339844 157.355469 65.535156 C 157.988281 65.777344 158.390625 65.324219 158.625 64.09375 C 158.816406 63.105469 158.925781 62.257812 158.867188 62.214844 C 157.898438 61.460938 155.90625 61.496094 155.257812 62.28125 M 215.453125 69.292969 C 213.472656 72.171875 213.035156 73.5 214.074219 73.5 C 215.09375 73.5 218.621094 69.011719 218.621094 67.714844 C 218.621094 65.707031 217.550781 66.238281 215.453125 69.292969 M 102.75 73.980469 C 102.75 74.246094 104.035156 75.472656 105.605469 76.703125 C 107.175781 77.933594 108.472656 79.125 108.484375 79.347656 C 108.5 79.574219 107.511719 79.945312 106.292969 80.175781 C 103.109375 80.769531 102.914062 81.730469 105.878906 82.203125 C 109.105469 82.71875 109.789062 84.214844 107.644531 86.0625 C 105.65625 87.773438 101.46875 93.222656 101.46875 94.097656 C 101.46875 94.457031 103.097656 93.265625 105.085938 91.445312 C 110.605469 86.402344 112.96875 84.742188 113.65625 85.429688 C 113.988281 85.761719 114.515625 87.40625 114.828125 89.078125 C 115.660156 93.519531 116.191406 93.476562 116.191406 88.96875 C 116.191406 86.765625 116.472656 85.023438 116.832031 85.023438 C 117.183594 85.023438 117.472656 85.308594 117.472656 85.664062 C 117.472656 86.015625 117.761719 86.300781 118.113281 86.300781 C 118.464844 86.300781 118.753906 85.871094 118.753906 85.34375 C 118.753906 84.015625 118.984375 84.070312 124.464844 86.753906 C 128.257812 88.613281 130.664062 90.472656 135.496094 95.273438 C 138.894531 98.652344 142.878906 103.273438 144.351562 105.542969 C 146.441406 108.757812 146.941406 109.246094 146.621094 107.75 C 146.394531 106.691406 145.257812 104.386719 144.097656 102.628906 C 141.503906 98.695312 131.804688 88.859375 125.78125 84.050781 C 122.988281 81.820312 121.3125 80.015625 121.3125 79.234375 C 121.3125 78.363281 120.875 77.976562 119.875 77.96875 C 119.082031 77.964844 117.425781 77.070312 116.191406 75.980469 C 114.0625 74.097656 113.941406 74.066406 113.746094 75.347656 C 113.492188 77.039062 113.453125 77.035156 108.511719 75.097656 C 104.292969 73.445312 102.75 73.148438 102.75 73.980469 M 112.992188 80.859375 C 112.992188 82.097656 113.320312 82.460938 114.433594 82.453125 C 115.222656 82.445312 116.304688 82.152344 116.832031 81.800781 C 117.664062 81.242188 117.625 81.027344 116.550781 80.207031 C 114.585938 78.707031 112.992188 79 112.992188 80.859375 M 182.527344 81.535156 C 182.335938 82.035156 182.019531 83.960938 181.824219 85.816406 L 181.472656 89.183594 L 182.667969 86.621094 C 184.613281 82.457031 184.832031 81.371094 183.804688 80.976562 C 183.296875 80.78125 182.71875 81.03125 182.527344 81.535156 M 207.578125 83.351562 C 206.285156 84.332031 206.003906 87.261719 207.257812 86.675781 C 207.875 86.398438 208.5 86.148438 209.136719 85.917969 C 210.570312 85.40625 211.1875 83.652344 210.160156 83.003906 C 209.085938 82.320312 208.90625 82.34375 207.578125 83.351562 M 90.78125 91.339844 C 89.101562 92.761719 89.398438 95.640625 91.148438 94.894531 C 91.71875 94.652344 92.800781 94.484375 93.554688 94.523438 C 94.5625 94.578125 95.011719 94.136719 95.257812 92.851562 C 95.65625 90.785156 95.777344 90.976562 93.785156 90.519531 C 92.730469 90.277344 91.707031 90.558594 90.78125 91.339844 M 244.550781 97.574219 C 242.789062 98.472656 240.714844 99.800781 239.941406 100.519531 L 238.53125 101.832031 L 236.574219 100.1875 C 234.265625 98.246094 229.921875 97.433594 226.488281 98.300781 L 224.0625 98.910156 L 226.625 99.363281 C 232.105469 100.332031 235.589844 102.949219 231.402344 102.949219 C 230.332031 102.949219 228.386719 103.492188 227.078125 104.164062 C 224.585938 105.4375 219.613281 109.914062 220.121094 110.421875 C 220.285156 110.585938 221.644531 110.09375 223.140625 109.332031 C 230.515625 105.570312 234.003906 105.617188 230.429688 109.433594 L 228.546875 111.441406 L 230.304688 111.023438 C 232.328125 110.542969 232.394531 110.699219 231.160156 113.089844 C 229.957031 115.414062 228.664062 124.765625 229.4375 125.539062 C 229.796875 125.902344 230.316406 124.742188 230.765625 122.5625 C 231.566406 118.71875 234.988281 111.269531 235.957031 111.269531 C 236.28125 111.269531 236.546875 112.441406 236.546875 113.867188 C 236.546875 117.0625 237.5625 116.652344 238.140625 113.222656 C 238.375 111.835938 238.984375 110.359375 239.492188 109.9375 C 240.507812 109.09375 241.324219 109.644531 245.277344 113.832031 C 247.078125 115.738281 247.398438 115.878906 247.402344 114.789062 C 247.414062 112.855469 244.726562 108.515625 242.976562 107.640625 L 241.429688 106.871094 L 243.164062 106.078125 C 244.882812 105.296875 250.089844 105.847656 253.511719 107.171875 C 254.664062 107.617188 254.703125 107.558594 253.886719 106.554688 C 252.394531 104.722656 250.539062 104.015625 246.152344 103.609375 L 241.988281 103.222656 L 244.714844 100.546875 C 246.925781 98.371094 248.039062 97.789062 250.625 97.445312 C 252.375 97.214844 253.652344 96.773438 253.464844 96.464844 C 252.761719 95.328125 247.71875 95.953125 244.550781 97.574219 M 196.558594 99.941406 C 196.027344 100.75 195.433594 102.40625 195.234375 103.621094 L 194.875 105.828125 L 196.023438 104.226562 C 196.660156 103.347656 197.972656 101.886719 198.949219 100.984375 C 199.925781 100.082031 200.523438 99.148438 200.28125 98.90625 C 199.375 97.996094 197.492188 98.519531 196.558594 99.941406 M 150.5625 105.066406 C 154.164062 108.859375 155.484375 110.855469 157.527344 115.613281 C 160.054688 121.507812 161.222656 122.605469 162.851562 120.640625 C 165.011719 118.042969 155.023438 104.542969 148.402344 101.113281 C 145.769531 99.746094 146.125 100.390625 150.5625 105.066406 M 120.21875 104.964844 C 119.066406 106.355469 118.5625 109.15625 119.378906 109.660156 C 119.777344 109.90625 120.808594 109.933594 121.671875 109.71875 C 123.546875 109.246094 123.714844 107.527344 122.085938 105.511719 C 121.144531 104.347656 120.8125 104.25 120.21875 104.964844 M 166.585938 108.390625 C 166.101562 111.171875 165.960938 118.953125 166.394531 118.953125 C 168.835938 118.953125 169.160156 116.925781 167.828125 109.988281 L 167.03125 105.828125 Z M 120.671875 107.710938 C 120.671875 108.257812 120.960938 108.710938 121.3125 108.710938 C 121.664062 108.710938 121.953125 108.4375 121.953125 108.105469 C 121.953125 107.773438 121.664062 107.328125 121.3125 107.109375 C 120.960938 106.890625 120.671875 107.164062 120.671875 107.710938 M 86.101562 109.992188 C 82.898438 110.5625 80.871094 111.816406 81.109375 113.074219 C 81.414062 114.667969 83.746094 114.726562 87.730469 113.234375 C 91.863281 111.6875 94.15625 111.597656 98.671875 112.800781 C 105.175781 114.53125 111.5 118.734375 115.15625 123.753906 C 116.730469 125.917969 117.066406 124.285156 115.550781 121.832031 C 110.996094 114.464844 95.648438 108.292969 86.101562 109.992188 M 120.339844 114.628906 C 120.980469 120.515625 121.851562 123.433594 122.976562 123.433594 C 123.835938 123.433594 123.835938 123.59375 122.949219 124.855469 C 121.535156 126.878906 121.714844 131.214844 123.480469 137.628906 C 124.574219 141.609375 124.808594 143.367188 124.3125 143.867188 C 123.8125 144.363281 123.914062 144.558594 124.667969 144.558594 C 125.246094 144.558594 125.898438 144.273438 126.113281 143.917969 C 126.332031 143.566406 127.214844 143.28125 128.074219 143.28125 C 129.730469 143.28125 130.148438 144.679688 129.019531 146.460938 C 128.511719 147.269531 128.363281 147.246094 128 146.300781 C 127.074219 143.890625 126.386719 145.335938 126.773438 148.882812 L 127.171875 152.5625 L 124.265625 154.367188 C 117.859375 158.34375 107.773438 170.441406 103.078125 179.769531 C 102.457031 181.003906 100.976562 183.378906 99.789062 185.054688 C 97.375 188.449219 97.273438 188.734375 98.460938 188.734375 C 99.773438 188.734375 103.039062 184.933594 105.332031 180.730469 C 109.691406 172.753906 114.273438 165.917969 116.945312 163.394531 C 120.8125 159.75 125.292969 156.082031 125.882812 156.082031 C 126.152344 156.082031 126.566406 157.09375 126.800781 158.328125 C 127.195312 160.441406 126.960938 160.851562 122.921875 165.132812 C 113.558594 175.058594 108.144531 186.472656 107.480469 197.695312 C 107.148438 203.234375 107.945312 203.816406 108.734375 198.617188 C 109.675781 192.394531 114.835938 180.136719 119.511719 173.015625 C 122.738281 168.101562 126.679688 163.183594 127.410156 163.152344 C 127.769531 163.136719 128.570312 164.066406 129.191406 165.214844 C 130.203125 167.09375 134.980469 170.792969 136.425781 170.816406 C 138.480469 170.851562 138.515625 171.949219 136.621094 176.597656 C 134.375 182.101562 132.242188 190.265625 130.191406 201.214844 C 129.011719 207.519531 128.757812 211.140625 128.757812 221.382812 C 128.761719 228.316406 129.070312 235.003906 129.453125 236.425781 L 130.148438 238.988281 L 130.222656 235.785156 C 130.261719 234.027344 130.714844 227.4375 131.230469 221.148438 C 132.734375 202.769531 136.144531 186.246094 140.320312 177.113281 C 142.417969 172.527344 142.789062 172.082031 144.839844 171.695312 L 147.070312 171.277344 L 145.074219 169.714844 C 143.976562 168.855469 143.082031 167.574219 143.082031 166.867188 C 143.082031 165.109375 141.683594 165.683594 140.613281 167.878906 C 139.863281 169.421875 139.480469 169.609375 137.765625 169.265625 C 135.058594 168.722656 132.832031 167.164062 132.859375 165.832031 C 132.871094 165.222656 133.433594 164.058594 134.113281 163.246094 L 135.347656 161.765625 L 138.878906 162.875 C 142.242188 163.9375 142.46875 163.9375 143.660156 162.863281 C 144.34375 162.242188 145.429688 161.839844 146.074219 161.972656 C 147.027344 162.167969 147.222656 162.769531 147.132812 165.285156 C 147.015625 168.605469 147.453125 168.695312 148.5 165.558594 C 149.171875 163.535156 154.921875 158.109375 155.636719 158.824219 C 156.226562 159.414062 150.027344 168.886719 149.050781 168.886719 C 148.582031 168.886719 148.203125 169.175781 148.203125 169.527344 C 148.203125 170.609375 151.207031 170.238281 153.519531 168.875 C 154.726562 168.164062 156.109375 167.730469 156.597656 167.914062 C 157.636719 168.304688 161.085938 165.125 164.046875 161.058594 C 165.191406 159.484375 168.261719 153.757812 170.867188 148.335938 C 173.472656 142.914062 177.027344 136.308594 178.761719 133.65625 C 181.253906 129.855469 182.011719 128.066406 182.351562 125.199219 C 182.585938 123.199219 183.117188 120.820312 183.527344 119.910156 C 184.171875 118.503906 184.570312 118.316406 186.246094 118.644531 C 187.726562 118.933594 187.976562 118.863281 187.253906 118.359375 C 185.878906 117.402344 174.71875 117.527344 170.929688 118.542969 C 165.121094 120.097656 160.894531 122.742188 155.5625 128.167969 C 149.777344 134.050781 147.507812 138.523438 147.636719 143.773438 C 147.675781 145.4375 147.84375 146.285156 148.007812 145.652344 C 148.316406 144.460938 150.171875 144.625 151.882812 145.996094 C 153.167969 147.023438 152.824219 147.570312 150.601562 148.03125 C 148.617188 148.441406 148.578125 148.503906 149.765625 149.390625 C 151.75 150.875 154.414062 150.480469 158.03125 148.167969 C 163.886719 144.421875 168.824219 137.554688 172.363281 128.234375 C 173.035156 126.472656 174.277344 123.519531 175.132812 121.671875 C 176.539062 118.625 176.875 118.3125 178.765625 118.3125 C 179.914062 118.3125 180.851562 118.476562 180.851562 118.675781 C 180.851562 119.40625 176.933594 124.714844 176.390625 124.714844 C 176.085938 124.714844 175.703125 124.355469 175.539062 123.914062 C 175.179688 122.957031 175.050781 123.320312 173.589844 129.394531 C 172.148438 135.394531 168.976562 141.546875 165.167969 145.730469 C 161.492188 149.773438 158.070312 151.5625 153.964844 151.597656 C 152.210938 151.613281 151.40625 151.828125 151.910156 152.148438 C 152.511719 152.527344 151.558594 153.875 148.433594 157.0625 C 144.566406 161.007812 143.898438 161.4375 141.84375 161.308594 C 138.546875 161.101562 137.339844 160.617188 137.710938 159.648438 C 138.121094 158.582031 145.976562 153.171875 148.445312 152.253906 C 150.234375 151.589844 150.257812 151.53125 149.148438 150.304688 C 148.519531 149.609375 147.445312 149.042969 146.761719 149.042969 C 145.121094 149.042969 137.195312 156.707031 134.007812 161.378906 C 131.773438 164.660156 130.277344 165.585938 130.277344 163.691406 C 130.277344 163.335938 130.535156 163.210938 130.847656 163.402344 C 131.714844 163.9375 132.339844 161.734375 131.550781 160.941406 C 131.0625 160.453125 130.691406 160.53125 130.257812 161.210938 C 129.757812 162.003906 129.652344 162.011719 129.644531 161.253906 C 129.640625 160.753906 130.132812 159.746094 130.738281 159.015625 C 131.347656 158.28125 131.433594 158.042969 130.929688 158.484375 C 129.714844 159.554688 128.996094 159.492188 128.996094 158.324219 C 128.996094 157.796875 129.429688 157.363281 129.957031 157.363281 C 131.078125 157.363281 131.238281 155.382812 130.203125 154.347656 C 129.300781 153.445312 133.242188 150.769531 137.160156 149.628906 C 138.65625 149.195312 139.878906 148.597656 139.878906 148.300781 C 139.878906 147.441406 136.84375 147.675781 134.320312 148.730469 C 133.042969 149.261719 131.871094 149.570312 131.714844 149.414062 C 131.0625 148.757812 133.84375 145.246094 136.285156 143.648438 C 138.167969 142.417969 139.421875 142.027344 140.679688 142.28125 C 141.648438 142.480469 143.273438 142.8125 144.289062 143.023438 C 145.976562 143.375 146.207031 143.203125 146.914062 141.0625 C 147.339844 139.769531 147.492188 138.515625 147.25 138.273438 C 147.007812 138.035156 145.179688 137.847656 143.183594 137.859375 C 140.492188 137.875 138.457031 138.398438 135.277344 139.886719 C 132.921875 140.992188 129.898438 141.988281 128.554688 142.105469 L 126.113281 142.320312 L 124.714844 136.878906 C 123.941406 133.882812 123.320312 130.285156 123.328125 128.875 L 123.34375 126.3125 L 123.996094 128.234375 C 124.351562 129.292969 124.867188 131.308594 125.140625 132.714844 C 125.625 135.21875 125.636719 135.191406 125.714844 131.597656 C 125.757812 129.570312 126.0625 127.914062 126.390625 127.914062 C 127.15625 127.914062 127.511719 129.242188 128.019531 133.996094 C 128.535156 138.8125 128.902344 140.078125 129.773438 140.078125 C 130.242188 140.078125 130.332031 138.515625 130.050781 135.1875 C 129.636719 130.273438 127.621094 124.882812 125.960938 124.246094 C 125.519531 124.078125 125.148438 122.886719 125.140625 121.605469 C 125.125 119.550781 124.8125 117.683594 123.539062 112.070312 C 123.300781 111.03125 122.746094 110.628906 121.558594 110.628906 C 119.914062 110.628906 119.910156 110.644531 120.339844 114.632812 M 122.304688 116.019531 C 122.496094 118.457031 122.925781 120.90625 123.257812 121.460938 C 123.65625 122.125 123.71875 121.15625 123.445312 118.632812 C 122.820312 112.863281 121.890625 110.734375 122.304688 116.019531 M 183.890625 115.550781 C 183.277344 115.714844 182.773438 116.113281 182.773438 116.4375 C 182.773438 117.371094 184.453125 117.132812 185.332031 116.070312 C 186.136719 115.101562 185.921875 115.023438 183.890625 115.550781 M 204.859375 116.949219 C 203.800781 117.605469 202.027344 119.1875 200.910156 120.46875 C 199.796875 121.746094 198.429688 122.792969 197.871094 122.792969 C 196.664062 122.792969 196.675781 122.722656 197.546875 125.222656 C 198.164062 127 198.402344 127.140625 199.828125 126.601562 C 200.699219 126.269531 203.40625 125.8125 205.839844 125.585938 C 208.273438 125.359375 210.125 124.945312 209.953125 124.667969 C 209.777344 124.390625 208.058594 123.808594 206.128906 123.375 C 204.195312 122.941406 202.617188 122.390625 202.617188 122.152344 C 202.617188 121.609375 204.800781 119.59375 205.390625 119.59375 C 205.625 119.59375 205.820312 120.003906 205.820312 120.507812 C 205.820312 121.507812 207.503906 123.433594 208.378906 123.433594 C 209.53125 123.433594 210.941406 121.347656 210.941406 119.644531 C 210.941406 117.785156 209.238281 115.75 207.6875 115.753906 C 207.1875 115.753906 205.914062 116.292969 204.859375 116.949219 M 254.792969 116.390625 C 254.269531 117.242188 254.972656 118.3125 256.058594 118.3125 C 256.535156 118.3125 257.953125 119.535156 259.207031 121.03125 C 261.542969 123.816406 262.042969 123.628906 260.832031 120.433594 C 259.476562 116.859375 255.960938 114.503906 254.792969 116.390625 M 136.144531 118.089844 C 136.300781 118.917969 137.035156 119.332031 138.605469 119.476562 C 140.574219 119.652344 140.726562 119.566406 139.878906 118.742188 C 139.351562 118.230469 138.246094 117.605469 137.417969 117.359375 C 136.1875 116.988281 135.960938 117.121094 136.144531 118.089844 M 194.296875 118.632812 C 193.269531 119.21875 193.054688 119.554688 193.691406 119.570312 C 194.242188 119.582031 195.25 119.167969 195.933594 118.652344 C 197.523438 117.449219 196.390625 117.433594 194.296875 118.632812 M 170.695312 119.640625 C 169.527344 120.105469 169.269531 120.574219 169.566406 121.679688 C 169.777344 122.46875 169.953125 123.90625 169.960938 124.875 C 169.964844 125.839844 170.230469 126.632812 170.546875 126.632812 C 171.0625 126.632812 175.089844 120.113281 175.089844 119.28125 C 175.089844 118.753906 172.347656 118.976562 170.695312 119.640625 M 189.246094 122.675781 C 186.257812 126.007812 184.667969 128.894531 178.878906 141.480469 C 173.335938 153.535156 169.765625 159.25 164.386719 164.671875 C 160.285156 168.804688 156.460938 170.816406 151.492188 171.457031 C 148.585938 171.828125 148.351562 171.9375 150.28125 172.003906 C 151.601562 172.050781 152.683594 172.195312 152.683594 172.332031 C 152.683594 172.464844 151.953125 174.167969 151.0625 176.117188 C 148.652344 181.382812 147.578125 187.496094 147.617188 195.773438 C 147.664062 206.195312 148.449219 207.167969 149.371094 197.953125 C 149.789062 193.761719 150.558594 188.316406 151.074219 185.851562 C 152.402344 179.550781 156.15625 172.359375 159.324219 170.070312 C 160.714844 169.0625 161.949219 168.335938 162.070312 168.457031 C 162.191406 168.582031 161.976562 169.582031 161.589844 170.691406 C 160.460938 173.929688 161.257812 174.4375 163.285156 171.765625 C 165.996094 168.199219 168.6875 165.472656 169.097656 165.882812 C 169.292969 166.078125 168.992188 168.257812 168.429688 170.730469 C 166.578125 178.875 167.527344 190.019531 170.886719 199.511719 L 171.871094 202.289062 L 168.367188 205.488281 C 166.441406 207.25 164.226562 209.824219 163.449219 211.214844 C 162.433594 213.019531 161.746094 213.617188 161.035156 213.3125 C 157.285156 211.695312 155.304688 211.574219 151.125 212.703125 C 148.785156 213.335938 146.234375 214.371094 145.457031 215.003906 C 144.074219 216.125 144.167969 216.148438 149.738281 216.046875 C 156.15625 215.925781 157.292969 216.671875 153.339844 218.417969 C 150.632812 219.613281 147.574219 222.976562 144.773438 227.839844 C 141.6875 233.195312 142.785156 233.3125 147.875 228.171875 C 152.457031 223.542969 154.980469 222.027344 156.515625 222.976562 C 156.988281 223.269531 156.6875 224.328125 155.59375 226.191406 C 153.460938 229.832031 153.535156 230.183594 156.042969 228.269531 L 158.125 226.683594 L 158.136719 232.835938 C 158.148438 237.199219 158.519531 240.105469 159.414062 242.828125 L 160.671875 246.667969 L 161 237.707031 C 161.222656 231.609375 161.621094 228.234375 162.246094 227.144531 L 163.164062 225.542969 L 164.117188 228.585938 C 164.640625 230.257812 165.308594 231.625 165.597656 231.625 C 165.890625 231.625 166.128906 229.609375 166.128906 227.144531 C 166.128906 222.773438 166.167969 222.664062 167.75 222.664062 C 169.460938 222.664062 175.359375 225.382812 176.042969 226.492188 C 176.265625 226.851562 176.871094 227.144531 177.390625 227.144531 C 180.019531 227.144531 173.324219 219.667969 170.164062 219.078125 C 169 218.855469 168.046875 218.40625 168.046875 218.074219 C 168.046875 216.882812 174.152344 214.796875 178.898438 214.371094 C 183.554688 213.949219 183.660156 213.902344 181.8125 213.113281 C 178.324219 211.621094 175.578125 211.597656 171.332031 213.03125 C 169.09375 213.785156 167.128906 214.273438 166.96875 214.113281 C 166.539062 213.6875 169.265625 208.484375 170.792969 206.816406 C 172.5 204.953125 173.132812 205.003906 174.882812 207.136719 L 176.324219 208.898438 L 175.707031 206.664062 C 174.859375 203.597656 174.878906 203.527344 176.691406 202.699219 C 178.871094 201.707031 178.714844 200.699219 176.457031 201.195312 C 174.742188 201.574219 174.601562 201.445312 174.191406 199.167969 C 171.679688 185.21875 171.296875 177.871094 172.78125 172.0625 C 173.269531 170.140625 173.652344 166.980469 173.625 165.046875 C 173.570312 160.691406 175.777344 155.3125 178.378906 153.460938 C 180.707031 151.800781 180.707031 152.214844 178.375 154.714844 C 177.363281 155.796875 176.066406 157.671875 175.492188 158.878906 C 174.164062 161.675781 174.082031 166.324219 175.359375 166.324219 C 175.859375 166.324219 176.460938 167.203125 176.695312 168.277344 C 177.113281 170.179688 177.210938 170.226562 180.429688 170.039062 C 183.269531 169.875 183.761719 169.652344 183.933594 168.441406 C 184.0625 167.519531 184.449219 167.160156 185.058594 167.390625 C 185.726562 167.648438 185.9375 167.328125 185.816406 166.238281 C 185.6875 165.035156 185.992188 164.6875 187.308594 164.535156 C 191.558594 164.039062 193.933594 150.078125 190.570312 145.359375 C 188.976562 143.125 186.5 142.609375 183.941406 143.980469 C 182.425781 144.789062 181.257812 143.992188 181.820312 142.523438 C 182.078125 141.851562 183.042969 141.574219 184.996094 141.617188 C 186.910156 141.660156 188.371094 141.253906 189.605469 140.339844 C 193.308594 137.59375 195.867188 130.503906 193.175781 130.457031 C 192.109375 130.4375 192.109375 130.40625 193.175781 129.785156 C 194.425781 129.054688 194.804688 124.074219 193.609375 124.074219 C 193.234375 124.074219 191.648438 124.953125 190.089844 126.023438 C 186.550781 128.457031 186.445312 127.484375 189.84375 123.796875 C 191.269531 122.25 192.191406 120.835938 191.894531 120.652344 C 191.601562 120.46875 190.40625 121.378906 189.246094 122.675781 M 165.0625 122.515625 C 164.851562 123.066406 165.003906 123.84375 165.402344 124.246094 C 165.941406 124.785156 166.125 124.527344 166.125 123.242188 C 166.125 121.316406 165.648438 120.988281 165.0625 122.515625 M 157.484375 126.960938 C 155.011719 129.113281 154.964844 129.21875 156.167969 130.152344 C 157.574219 131.246094 159.726562 131.441406 159.726562 130.476562 C 159.726562 130.125 160.324219 129.835938 161.054688 129.835938 C 162.222656 129.835938 162.332031 129.578125 161.941406 127.753906 C 161.132812 123.984375 160.945312 123.949219 157.484375 126.960938 M 134.246094 127.179688 C 133.699219 127.527344 135.027344 128.191406 138.085938 129.101562 C 140.65625 129.871094 144.011719 131.210938 145.546875 132.085938 C 147.078125 132.960938 148.703125 133.675781 149.160156 133.675781 C 149.863281 133.675781 150.761719 132.367188 150.761719 131.347656 C 150.761719 130.667969 143.660156 127.96875 140.175781 127.324219 C 135.742188 126.503906 135.328125 126.496094 134.246094 127.183594 M 198.417969 131.417969 C 197.761719 134.910156 194.675781 139.21875 191.769531 140.703125 C 189.121094 142.050781 188.367188 143.277344 190.183594 143.277344 C 190.738281 143.277344 192.058594 144.144531 193.113281 145.199219 C 195.070312 147.15625 196.335938 147.847656 194.988281 146.226562 C 193.9375 144.960938 196.691406 142.917969 200.5625 142.09375 C 209.757812 140.136719 219.882812 140.558594 228.859375 143.277344 C 230.976562 143.917969 232.707031 144.332031 232.707031 144.195312 C 232.707031 144.0625 231.375 143.347656 229.75 142.605469 C 224.132812 140.046875 218.367188 139.179688 206.707031 139.152344 L 195.75 139.125 L 197.261719 137.140625 C 198.09375 136.050781 198.957031 133.820312 199.183594 132.175781 C 199.65625 128.726562 199.039062 128.113281 198.417969 131.417969 M 153.324219 132.320312 C 153.324219 132.671875 153.609375 133.140625 153.964844 133.355469 C 154.316406 133.574219 154.605469 133.464844 154.605469 133.113281 C 154.605469 132.757812 154.316406 132.292969 153.964844 132.074219 C 153.609375 131.859375 153.324219 131.96875 153.324219 132.320312 M 242.308594 132.417969 C 240.371094 132.746094 237.492188 133.410156 235.90625 133.898438 C 233.253906 134.71875 233.839844 134.765625 243.269531 134.480469 C 258.191406 134.027344 267.816406 135.992188 280.617188 142.101562 C 283.554688 143.503906 286.363281 144.496094 286.859375 144.304688 C 289.277344 143.378906 286.539062 139.195312 282.003906 136.878906 C 280.761719 136.246094 277.011719 134.953125 273.671875 134.007812 C 268.40625 132.519531 266.148438 132.257812 256.714844 132.058594 C 250.726562 131.933594 244.246094 132.09375 242.308594 132.417969 M 191.375 133.976562 C 190.324219 134.773438 190.292969 134.917969 191.1875 134.9375 C 191.765625 134.949219 192.402344 134.523438 192.605469 133.996094 C 193.0625 132.804688 192.929688 132.800781 191.375 133.976562 M 92.503906 136.117188 C 90.390625 137.539062 90.5625 140.441406 92.71875 139.761719 C 93.480469 139.523438 94.683594 139.339844 95.386719 139.359375 C 96.164062 139.378906 96.976562 138.730469 97.460938 137.703125 C 98.390625 135.71875 98.46875 135.84375 96.027344 135.390625 C 94.75 135.148438 93.578125 135.386719 92.503906 136.117188 M 106.109375 135.671875 C 104.632812 137.191406 105.285156 137.449219 110.476562 137.417969 C 115.339844 137.386719 115.558594 137.324219 114.222656 136.386719 C 112.320312 135.054688 107.152344 134.597656 106.109375 135.671875 M 150.144531 136.835938 C 149.5 138.039062 149.511719 138.425781 150.214844 138.871094 C 151.289062 139.550781 151.515625 139.550781 152.550781 138.894531 C 153.199219 138.480469 153.117188 138.042969 152.15625 136.859375 L 150.9375 135.355469 Z M 198.910156 147.890625 C 196.054688 148.410156 195.582031 148.691406 195.890625 149.671875 C 196.097656 150.3125 196.28125 152.457031 196.304688 154.4375 C 196.363281 159.121094 193.984375 164.082031 190.007812 167.582031 C 186.59375 170.589844 183.210938 171.6875 179.214844 171.089844 C 176.847656 170.734375 176.371094 170.835938 176.371094 171.695312 C 176.371094 172.261719 176.875 172.742188 177.492188 172.761719 C 178.105469 172.78125 179.824219 174.5 181.304688 176.578125 C 187.988281 185.949219 193.253906 194.207031 194.988281 198.027344 C 196.023438 200.308594 197.007812 202.175781 197.171875 202.175781 C 197.515625 202.175781 196.972656 200.785156 190.457031 184.890625 C 187.929688 178.730469 185.730469 173.257812 185.566406 172.726562 C 185.378906 172.109375 186.015625 171.445312 187.351562 170.859375 C 190.339844 169.546875 194.425781 165.191406 195.800781 161.84375 C 196.453125 160.261719 197.203125 158.53125 197.46875 158.003906 C 198.203125 156.539062 209.363281 156.347656 214.992188 157.703125 C 217.398438 158.28125 219.519531 158.601562 219.707031 158.414062 C 220.28125 157.835938 215.9375 155.503906 212.21875 154.394531 C 210.285156 153.816406 206.128906 153.164062 202.988281 152.953125 C 199.652344 152.722656 197.179688 152.261719 197.039062 151.839844 C 196.910156 151.441406 198.667969 150.460938 200.992188 149.644531 C 207.40625 147.378906 206.394531 146.527344 198.910156 147.890625 M 233.464844 150.160156 C 233.632812 151.042969 234.5625 151.359375 237.832031 151.644531 C 240.121094 151.84375 242.820312 152.355469 243.839844 152.785156 C 246.148438 153.75 246.671875 153.363281 244.730469 152.121094 C 240.148438 149.195312 233.046875 147.960938 233.464844 150.160156 M 259.082031 158.132812 C 258.660156 158.554688 258.3125 159.222656 258.3125 159.621094 C 258.3125 160.058594 257.558594 160.230469 256.386719 160.058594 C 254.613281 159.800781 252.550781 160.742188 252.550781 161.8125 C 252.550781 162.058594 253.417969 162.136719 254.472656 161.980469 C 256.757812 161.644531 257.074219 162.839844 254.953125 163.8125 C 253.453125 164.5 250.441406 168.273438 250.972656 168.800781 C 251.140625 168.96875 251.925781 168.515625 252.714844 167.796875 C 254.046875 166.582031 256.574219 165.046875 257.234375 165.046875 C 257.390625 165.046875 257.375 166.304688 257.203125 167.84375 C 256.796875 171.441406 257.964844 172.234375 258.980469 169.050781 C 260.0625 165.671875 260.421875 165.464844 262.441406 167.054688 L 264.230469 168.460938 L 263.773438 167.019531 C 263.355469 165.707031 263.4375 165.640625 264.675781 166.304688 C 265.421875 166.703125 266.886719 168.386719 267.925781 170.039062 C 269.449219 172.46875 269.816406 172.765625 269.824219 171.585938 C 269.839844 169.667969 268.378906 166.222656 267.09375 165.160156 C 266.53125 164.691406 266.214844 163.9375 266.390625 163.480469 C 266.574219 163 266.09375 162.492188 265.234375 162.269531 C 263.859375 161.90625 263.832031 161.8125 264.835938 160.808594 C 265.765625 159.878906 266.179688 159.84375 267.894531 160.554688 C 270.429688 161.605469 270.96875 161.070312 269.121094 159.347656 C 267.519531 157.859375 266.261719 157.691406 263.773438 158.636719 C 262.472656 159.132812 262.03125 159.0625 261.742188 158.316406 C 261.300781 157.167969 260.128906 157.085938 259.082031 158.132812 M 205.253906 161.796875 C 203.398438 162.945312 205.121094 164.796875 212.183594 169.238281 C 223.257812 176.203125 229.945312 183.027344 235.820312 193.359375 C 239.382812 199.621094 240.394531 198.816406 237.269531 192.207031 C 233.871094 185.023438 228.730469 179.21875 216.738281 169.007812 C 209.851562 163.144531 206.488281 161.035156 205.253906 161.796875 M 226.304688 165.242188 C 226.304688 165.703125 227.507812 166.613281 228.984375 167.261719 C 232.761719 168.929688 241.394531 177.453125 246.175781 184.238281 C 248.40625 187.402344 250.351562 189.863281 250.503906 189.714844 C 251.035156 189.183594 246.0625 181.023438 242.402344 176.417969 C 240.367188 173.859375 237.285156 170.582031 235.546875 169.132812 C 230.59375 165.011719 226.304688 163.207031 226.304688 165.242188 M 197.746094 169.179688 C 196.695312 169.949219 196.707031 170.042969 197.980469 170.722656 C 198.722656 171.121094 199.695312 171.449219 200.140625 171.449219 C 202.546875 171.449219 210.84375 176.449219 215.023438 180.421875 C 223.136719 188.132812 230.035156 202.226562 230.121094 211.261719 C 230.148438 213.992188 231.101562 214.996094 231.664062 212.894531 C 232.804688 208.636719 231.5 202.285156 228.078125 195.453125 C 221.183594 181.695312 202.621094 165.613281 197.746094 169.179688 M 176.011719 177.050781 C 176.597656 181.246094 180.066406 192.410156 180.953125 192.957031 C 181.792969 193.476562 181.378906 189.414062 179.816406 181.792969 C 178.550781 175.601562 177.898438 174.007812 176.632812 174.007812 C 175.75 174.007812 175.652344 174.484375 176.011719 177.050781 M 195.652344 177.164062 C 194.972656 177.582031 196.074219 179.84375 200.539062 187.21875 C 203.710938 192.453125 207.195312 198.515625 208.289062 200.691406 C 210.480469 205.0625 211.253906 205.867188 211.832031 204.363281 C 212.324219 203.085938 205.722656 190.066406 200.953125 182.902344 C 196.597656 176.355469 196.726562 176.5 195.652344 177.164062 M 121.824219 194.539062 C 116.960938 201.007812 107.699219 225.125 105.371094 237.386719 C 104.074219 244.214844 102.691406 258.835938 103.097656 261.378906 C 103.324219 262.796875 103.921875 264.601562 104.425781 265.394531 C 105.5625 267.1875 108.214844 267.300781 109.128906 265.597656 C 109.515625 264.871094 109.792969 259.386719 109.792969 252.3125 C 109.796875 240.820312 110.671875 231.507812 112.402344 224.582031 C 114.125 217.675781 117.847656 207.097656 120.792969 200.730469 C 124.152344 193.46875 124.585938 190.863281 121.824219 194.539062 M 195.796875 212.480469 C 190.375 213.386719 185.558594 215.527344 182.3125 218.476562 C 178.59375 221.851562 178.859375 222.804688 182.675781 219.785156 C 186.996094 216.367188 190.925781 215.300781 199.207031 215.300781 L 206.359375 215.300781 L 210.21875 218.019531 C 214.347656 220.929688 216.703125 221.507812 216.703125 219.605469 C 216.703125 217.832031 214.921875 215.714844 212.339844 214.417969 C 210.390625 213.441406 201.160156 211.589844 199.550781 211.855469 C 199.300781 211.894531 197.613281 212.175781 195.796875 212.480469 M 159.886719 217.992188 C 158.65625 220.640625 158.890625 221.089844 161.5 221.089844 C 163.855469 221.089844 163.917969 221.03125 163.980469 218.675781 C 164.035156 216.480469 163.890625 216.261719 162.363281 216.265625 C 161.167969 216.269531 160.453125 216.769531 159.886719 217.992188 M 173.175781 232.703125 C 172.617188 232.941406 173.910156 233.460938 176.269531 233.941406 C 183.167969 235.347656 187.894531 239.207031 187.894531 243.4375 C 187.894531 244.996094 189.621094 248.058594 190.742188 248.488281 C 192.007812 248.972656 193.015625 247.074219 193.015625 244.199219 C 193.015625 241.015625 189.671875 236.882812 185.304688 234.667969 C 181.824219 232.902344 175.195312 231.828125 173.175781 232.703125 M 31.492188 298.90625 C 24.398438 300.578125 17.386719 306.085938 14.460938 312.289062 C 13.019531 315.347656 12.800781 316.652344 12.800781 322.210938 C 12.800781 328.355469 12.894531 328.78125 15.097656 332.773438 C 19.636719 341.007812 27.148438 344.976562 38.410156 345.09375 C 44.613281 345.15625 50.554688 344.070312 52.296875 342.550781 C 53.441406 341.554688 55.375 336.546875 55.375 334.582031 C 55.375 332.765625 53.695312 333.210938 52.847656 335.253906 C 51.824219 337.730469 48.535156 340.816406 45.632812 342.023438 C 42.519531 343.324219 35.917969 343.292969 32.003906 341.957031 C 27.558594 340.441406 22.65625 335.449219 20.789062 330.535156 C 18.890625 325.535156 18.742188 317.402344 20.460938 312.308594 C 22.875 305.148438 30.25 300.121094 38.324219 300.128906 C 45.070312 300.136719 49.433594 302.589844 51.660156 307.625 C 52.328125 309.136719 53.148438 310.367188 53.484375 310.367188 C 54.171875 310.367188 54.210938 306.960938 53.566406 302.71875 L 53.132812 299.867188 L 48.972656 299.078125 C 44.167969 298.160156 35.039062 298.074219 31.492188 298.90625 M 77.621094 299.695312 C 76.652344 300.484375 75.859375 301.457031 75.859375 301.851562 C 75.859375 302.679688 68.445312 322.457031 63.90625 333.734375 C 60.824219 341.398438 60.808594 341.417969 58.09375 342.277344 C 56.597656 342.753906 55.375 343.402344 55.375 343.71875 C 55.375 344.039062 58.542969 344.296875 62.417969 344.296875 C 66.800781 344.296875 69.457031 344.050781 69.457031 343.640625 C 69.457031 343.28125 68.589844 342.8125 67.523438 342.597656 C 66.460938 342.386719 65.445312 341.976562 65.269531 341.691406 C 65.089844 341.40625 65.964844 338.015625 67.210938 334.164062 C 69.414062 327.347656 69.53125 327.148438 71.539062 326.851562 C 74.347656 326.441406 83.71875 326.921875 84.242188 327.503906 C 85.09375 328.453125 88.773438 340.527344 88.460938 341.347656 C 88.28125 341.816406 87.246094 342.375 86.160156 342.589844 C 85.070312 342.808594 84.183594 343.28125 84.183594 343.640625 C 84.183594 344.054688 87.25 344.296875 92.503906 344.296875 C 101.042969 344.296875 102.992188 343.648438 98.273438 342.378906 C 96.53125 341.910156 95.433594 341.136719 94.832031 339.953125 C 93.976562 338.273438 83.867188 309.160156 81.683594 302.089844 C 81.09375 300.179688 80.335938 298.535156 79.996094 298.433594 C 79.65625 298.335938 78.589844 298.902344 77.621094 299.695312 M 161.480469 299.832031 C 160.515625 300.726562 159.726562 301.828125 159.726562 302.277344 C 159.726562 302.730469 157.597656 308.695312 154.996094 315.535156 C 144.648438 342.757812 145.222656 341.59375 141.757812 342.300781 C 140.601562 342.539062 139.539062 343.082031 139.394531 343.515625 C 139.199219 344.101562 140.984375 344.296875 146.546875 344.296875 C 150.625 344.296875 153.964844 344.042969 153.964844 343.726562 C 153.964844 343.035156 152.382812 342.378906 150.710938 342.378906 C 148.9375 342.378906 149.171875 339.972656 151.605469 333.09375 L 153.644531 327.332031 L 168.367188 327.332031 L 170.40625 333.09375 C 172.839844 339.972656 173.074219 342.378906 171.300781 342.378906 C 169.628906 342.378906 168.046875 343.035156 168.046875 343.726562 C 168.046875 344.042969 171.972656 344.296875 176.769531 344.296875 C 184.449219 344.296875 185.394531 344.183594 184.691406 343.339844 C 184.253906 342.808594 183.230469 342.378906 182.417969 342.378906 C 181.609375 342.378906 180.394531 341.679688 179.726562 340.828125 C 178.707031 339.535156 166.453125 305.15625 165.128906 299.875 C 164.601562 297.777344 163.707031 297.765625 161.480469 299.832031 M 106.429688 299.277344 C 103.765625 299.472656 102.75 299.804688 102.75 300.476562 C 102.75 301.019531 103.363281 301.40625 104.226562 301.40625 C 105.039062 301.40625 106.261719 301.816406 106.949219 302.316406 C 108.128906 303.179688 108.191406 304.148438 108.191406 321.742188 C 108.191406 341.367188 108.089844 342.066406 105.152344 342.5 C 104.414062 342.609375 103.679688 343.085938 103.523438 343.558594 C 103.292969 344.265625 105.402344 344.375 115.320312 344.160156 C 125.828125 343.9375 127.773438 343.730469 130.316406 342.574219 C 136.773438 339.636719 139.554688 332.769531 136.75 326.695312 C 135.308594 323.578125 133.289062 321.644531 130.0625 320.296875 L 127.628906 319.277344 L 130.871094 316.230469 C 134.003906 313.292969 134.117188 313.0625 134.113281 309.695312 C 134.113281 305.195312 132.570312 302.652344 128.714844 300.785156 C 126.222656 299.578125 124.492188 299.320312 117.929688 299.175781 C 113.628906 299.078125 108.453125 299.125 106.429688 299.273438 M 186.320312 299.441406 C 185.859375 300.183594 186.378906 300.496094 189.019531 301.0625 C 190.167969 301.308594 191.390625 302.042969 191.738281 302.695312 C 192.421875 303.96875 192.636719 337.824219 191.976562 340.277344 C 191.601562 341.671875 191.253906 341.867188 187.734375 342.652344 C 186.765625 342.867188 185.972656 343.328125 185.972656 343.679688 C 185.972656 344.09375 191.796875 344.257812 202.4375 344.148438 L 218.902344 343.976562 L 219.953125 341.097656 C 221.839844 335.914062 221.984375 334.695312 220.714844 334.703125 C 220.023438 334.707031 219.089844 335.734375 218.320312 337.339844 C 216.417969 341.3125 215.195312 341.832031 207.65625 341.878906 C 201.3125 341.914062 201.058594 341.859375 199.621094 340.191406 C 198.148438 338.476562 198.136719 338.34375 198.136719 320.894531 C 198.136719 304.179688 198.199219 303.265625 199.417969 302.046875 C 200.121094 301.34375 201.417969 300.765625 202.296875 300.765625 C 203.292969 300.765625 203.898438 300.402344 203.898438 299.804688 C 203.898438 299 202.515625 298.84375 195.292969 298.84375 C 190.5625 298.84375 186.523438 299.113281 186.320312 299.441406 M 224.089844 299.441406 C 223.632812 300.183594 224.152344 300.496094 226.789062 301.0625 C 227.9375 301.308594 229.164062 302.042969 229.511719 302.695312 C 230.304688 304.179688 230.351562 339.78125 229.5625 341.027344 C 229.253906 341.515625 227.914062 342.09375 226.585938 342.308594 C 225.253906 342.527344 224.050781 343.0625 223.902344 343.5 C 223.695312 344.125 227.269531 344.296875 240.246094 344.296875 L 256.855469 344.296875 L 258.222656 340.125 C 259.847656 335.179688 259.886719 334.695312 258.660156 334.695312 C 258.148438 334.695312 256.964844 336 256.03125 337.589844 C 255.097656 339.183594 253.765625 340.789062 253.070312 341.164062 C 252.375 341.535156 248.925781 341.855469 245.402344 341.878906 C 235.632812 341.933594 236.226562 343.292969 236.226562 320.863281 C 236.226562 303.507812 236.289062 302.539062 237.46875 301.675781 C 238.152344 301.175781 239.378906 300.765625 240.191406 300.765625 C 241.078125 300.765625 241.667969 300.382812 241.667969 299.804688 C 241.667969 299 240.285156 298.84375 233.066406 298.84375 C 228.332031 298.84375 224.292969 299.113281 224.089844 299.441406 M 262.796875 299.804688 C 262.796875 300.332031 263.308594 300.765625 263.933594 300.765625 C 264.558594 300.765625 265.710938 301.214844 266.492188 301.761719 C 267.910156 302.753906 267.917969 302.855469 267.90625 321.449219 C 267.902344 331.726562 267.644531 340.539062 267.332031 341.027344 C 267.023438 341.515625 265.683594 342.09375 264.355469 342.308594 C 263.027344 342.527344 261.820312 343.0625 261.675781 343.5 C 261.464844 344.125 265.171875 344.296875 278.660156 344.296875 L 295.910156 344.296875 L 296.945312 341.578125 C 297.515625 340.082031 298.167969 337.921875 298.394531 336.777344 C 299.015625 333.636719 297.207031 334.078125 295.167969 337.566406 C 294.242188 339.144531 292.886719 340.753906 292.15625 341.144531 C 291.421875 341.535156 287.851562 341.875 284.214844 341.898438 C 274.214844 341.960938 273.679688 341.332031 273.679688 329.574219 C 273.679688 321.746094 273.835938 321.574219 280.570312 322.082031 C 285.792969 322.476562 287.761719 323.671875 287.761719 326.445312 C 287.761719 327.109375 288.195312 327.652344 288.722656 327.652344 C 289.519531 327.652344 289.683594 326.4375 289.683594 320.558594 C 289.683594 315.3125 289.480469 313.53125 288.914062 313.71875 C 288.488281 313.859375 287.914062 314.855469 287.636719 315.933594 C 286.835938 319.023438 285.910156 319.402344 279.664062 319.195312 L 274 319.011719 L 274 301.726562 L 279.761719 301.527344 C 287.839844 301.246094 290.082031 302.015625 291.621094 305.605469 C 293.742188 310.558594 294.71875 308.832031 293.757812 301.816406 L 293.351562 298.84375 L 278.074219 298.84375 C 264.917969 298.84375 262.796875 298.980469 262.796875 299.804688 M 306.152344 299.386719 C 302.519531 299.886719 301.996094 300.792969 304.914062 301.550781 C 306.292969 301.90625 307.230469 302.65625 307.632812 303.714844 C 308.433594 305.816406 308.4375 337.960938 307.636719 340.0625 C 307.207031 341.199219 306.261719 341.878906 304.4375 342.371094 C 303.011719 342.753906 301.847656 343.328125 301.847656 343.648438 C 301.847656 344.351562 318.320312 344.816406 319.359375 344.136719 C 320.246094 343.558594 318.753906 342.402344 317.097656 342.386719 C 314.519531 342.363281 314.011719 340.734375 314.011719 332.484375 C 314.011719 323.699219 314.125 323.496094 318.605469 324.371094 C 320.453125 324.734375 321.382812 325.761719 325.65625 332.144531 C 332.660156 342.605469 335.726562 344.9375 342.480469 344.9375 C 346.238281 344.9375 347.191406 344.089844 344.261719 343.355469 C 341.054688 342.550781 337.132812 338.550781 331.945312 330.789062 C 329.125 326.570312 326.8125 322.90625 326.8125 322.65625 C 326.8125 322.402344 327.960938 321.488281 329.359375 320.621094 C 334.015625 317.742188 336.246094 312.957031 335.152344 308.175781 C 334.347656 304.640625 332.671875 302.609375 329.085938 300.8125 C 326.335938 299.433594 325.027344 299.242188 317.597656 299.113281 C 312.984375 299.035156 307.832031 299.15625 306.152344 299.386719 M 114.699219 301.832031 C 114.464844 302.066406 114.273438 305.925781 114.273438 310.40625 C 114.273438 316.839844 114.460938 318.628906 115.175781 318.902344 C 116.371094 319.359375 123.394531 318.351562 125.003906 317.492188 C 126.632812 316.621094 128.355469 312.976562 128.355469 310.410156 C 128.355469 304.84375 124.675781 301.414062 118.699219 301.410156 C 116.734375 301.40625 114.933594 301.597656 114.699219 301.832031 M 314.4375 301.832031 C 314.203125 302.066406 314.011719 306.527344 314.011719 311.742188 L 314.011719 321.226562 L 315.710938 321.652344 C 318.65625 322.394531 325.035156 320.855469 326.632812 319.019531 C 330.921875 314.09375 329.59375 305.4375 324.121094 302.625 C 321.796875 301.433594 315.363281 300.90625 314.4375 301.832031 M 74.042969 314.691406 C 72.558594 318.828125 71.351562 322.574219 71.359375 323.011719 C 71.375 323.589844 72.96875 323.8125 77.140625 323.8125 C 80.308594 323.8125 82.902344 323.597656 82.902344 323.332031 C 82.902344 322.15625 77.625 307.167969 77.210938 307.167969 C 76.953125 307.167969 75.53125 310.554688 74.042969 314.691406 M 160.332031 308.824219 C 158.339844 313.972656 155.242188 322.75 155.242188 323.25 C 155.242188 323.558594 157.835938 323.8125 161.003906 323.8125 C 165.414062 323.8125 166.765625 323.609375 166.765625 322.949219 C 166.765625 321.710938 162.246094 308.242188 161.597656 307.542969 C 161.285156 307.207031 160.746094 307.75 160.332031 308.824219 M 114.382812 330.429688 C 114.640625 341.894531 114.75 342.082031 121.28125 342.011719 C 126.246094 341.957031 128.3125 340.96875 130.304688 337.703125 C 132.988281 333.300781 131.066406 325.824219 126.558594 323.117188 C 124.84375 322.089844 122.8125 321.613281 119.183594 321.390625 L 114.175781 321.082031 Z M 114.382812 330.429688 " fill-opacity="1" fill-rule="evenodd"/></svg>